<svg xmlns="http://www.w3.org/2000/svg" viewBox="0 0 30 20"><rect width="30" height="20" fill="#012169"/><svg width="15" height="10" viewBox="0 0 30 20"><rect width="30" height="20" fill="#012169"/><path d="M0 0L30 20M30 0L0 20" stroke="#fff" stroke-width="4.0"/><path d="M0 0L30 20M30 0L0 20" stroke="#C8102E" stroke-width="1.6"/><path d="M15.0 0V20M0 10.0H30" stroke="#fff" stroke-width="6.6000000000000005"/><path d="M15.0 0V20M0 10.0H30" stroke="#C8102E" stroke-width="4.0"/></svg><polygon points="7.50,12.80 7.93,14.11 9.22,13.63 8.47,14.78 9.64,15.49 8.27,15.62 8.45,16.98 7.50,15.99 6.55,16.98 6.73,15.62 5.36,15.49 6.53,14.78 5.78,13.63 7.07,14.11" fill="#fff"/><polygon points="22.50,3.40 22.71,4.05 23.36,3.81 22.98,4.39 23.57,4.74 22.89,4.81 22.98,5.49 22.50,5.00 22.02,5.49 22.11,4.81 21.43,4.74 22.02,4.39 21.64,3.81 22.29,4.05" fill="#fff"/><polygon points="26.30,7.50 26.51,8.15 27.16,7.91 26.78,8.49 27.37,8.84 26.69,8.91 26.78,9.59 26.30,9.09 25.82,9.59 25.91,8.91 25.23,8.84 25.82,8.49 25.44,7.91 26.09,8.15" fill="#fff"/><polygon points="22.50,15.10 22.73,15.81 23.44,15.55 23.03,16.18 23.67,16.57 22.92,16.64 23.02,17.38 22.50,16.84 21.98,17.38 22.08,16.64 21.33,16.57 21.97,16.18 21.56,15.55 22.27,15.81" fill="#fff"/><polygon points="19.20,8.20 19.41,8.85 20.06,8.61 19.68,9.19 20.27,9.54 19.59,9.61 19.68,10.29 19.20,9.79 18.72,10.29 18.81,9.61 18.13,9.54 18.72,9.19 18.34,8.61 18.99,8.85" fill="#fff"/><polygon points="24.60,10.60 24.76,10.98 25.17,11.01 24.86,11.28 24.95,11.69 24.60,11.47 24.25,11.69 24.34,11.28 24.03,11.01 24.44,10.98" fill="#fff"/></svg>
